<?xml version="1.0" encoding="utf-8"?>
<!-- Generator: Adobe Illustrator 27.0.0, SVG Export Plug-In . SVG Version: 6.00 Build 0)  -->
<svg version="1.1" xmlns="http://www.w3.org/2000/svg" xmlns:xlink="http://www.w3.org/1999/xlink" x="0px" y="0px"
	 viewBox="0 0 25 25" style="enable-background:new 0 0 25 25;" xml:space="preserve">
<style type="text/css">
	.st0{fill:#F5F5F5;}
	.st1{fill:#242424;}
	.st2{display:none;}
	.st3{display:inline;fill:#242424;}
	.st4{display:inline;fill:#F5F5F5;}
</style>
<g id="dots-light-theme">
	<rect class="st0" width="25" height="25"/>
	<circle class="st1" cx="12.5" cy="12.5" r="3.5"/>
	<path class="st1" d="M3.5,25c0-1.9-1.6-3.5-3.5-3.5V25H3.5z"/>
	<path class="st1" d="M21.5,25H25v-3.5C23.1,21.5,21.5,23.1,21.5,25z"/>
	<path class="st1" d="M25,3.5V0h-3.5C21.5,1.9,23.1,3.5,25,3.5z"/>
	<path class="st1" d="M0,3.5c1.9,0,3.5-1.6,3.5-3.5H0V3.5z"/>
</g>
<g id="dots-dark-theme" class="st2">
	<rect class="st3" width="25" height="25"/>
	<circle class="st4" cx="12.5" cy="12.5" r="3.5"/>
	<path class="st4" d="M3.5,25c0-1.9-1.6-3.5-3.5-3.5V25H3.5z"/>
	<path class="st4" d="M21.5,25H25v-3.5C23.1,21.5,21.5,23.1,21.5,25z"/>
	<path class="st4" d="M25,3.5V0h-3.5C21.5,1.9,23.1,3.5,25,3.5z"/>
	<path class="st4" d="M0,3.5c1.9,0,3.5-1.6,3.5-3.5H0V3.5z"/>
</g>
</svg>
