<?xml version="1.0" encoding="UTF-8"?><svg id="Layer_2" xmlns="http://www.w3.org/2000/svg" viewBox="0 0 64 64"><defs><style>.cls-1{fill:#fff;}</style></defs><g id="Layer_1-2"><rect class="cls-1" width="64" height="64"/><g><rect class="cls-1" x="5.5" y="6.5" width="52" height="52"/><path d="M56,8V57H7V8H56m3-3H4V60H59V5h0Z"/></g><g><path d="M20.39,49.29c-2.04,0-3.75-.36-5.12-1.09-1.37-.73-2.4-1.85-3.1-3.37-.7-1.52-1.09-3.49-1.17-5.91l6.17-.93c.03,1.4,.15,2.53,.38,3.39,.23,.86,.55,1.48,.97,1.86,.42,.38,.92,.56,1.51,.56,.75,0,1.24-.26,1.47-.77s.34-1.05,.34-1.61c0-1.34-.32-2.48-.97-3.41-.64-.93-1.52-1.86-2.62-2.8l-2.82-2.46c-1.24-1.05-2.28-2.24-3.12-3.57s-1.27-2.98-1.27-4.94c0-2.77,.82-4.88,2.46-6.35,1.64-1.46,3.87-2.2,6.69-2.2,1.75,0,3.15,.3,4.21,.89,1.06,.59,1.87,1.36,2.42,2.32,.55,.95,.93,1.96,1.13,3.02,.2,1.06,.32,2.08,.34,3.04l-6.21,.77c-.03-.97-.09-1.81-.18-2.52-.1-.71-.29-1.26-.58-1.65-.3-.39-.75-.58-1.37-.58-.67,0-1.16,.28-1.47,.85-.31,.56-.46,1.13-.46,1.69,0,1.21,.29,2.2,.87,2.96,.58,.77,1.34,1.57,2.28,2.4l2.7,2.38c1.42,1.21,2.63,2.58,3.61,4.11s1.47,3.43,1.47,5.68c0,1.53-.35,2.92-1.05,4.17-.7,1.25-1.69,2.24-2.96,2.96-1.28,.73-2.79,1.09-4.54,1.09Z"/><path d="M32.45,48.81V16.15h10.96c1.96,0,3.57,.37,4.84,1.11,1.26,.74,2.2,1.81,2.82,3.23,.62,1.41,.93,3.12,.93,5.14,0,2.53-.42,4.45-1.25,5.78s-1.96,2.25-3.39,2.76c-1.43,.51-3.02,.77-4.8,.77h-2.9v13.87h-7.22Zm7.22-18.91h2.42c.89,0,1.56-.16,2.02-.48,.46-.32,.76-.81,.91-1.45s.22-1.46,.22-2.46c0-.83-.06-1.56-.18-2.2-.12-.63-.41-1.14-.87-1.51-.46-.38-1.17-.56-2.14-.56h-2.38v8.67Z"/></g></g></svg>